<?xml version="1.0" encoding="utf-8"?>
<!-- Generator: Adobe Illustrator 26.5.0, SVG Export Plug-In . SVG Version: 6.00 Build 0)  -->
<svg version="1.1" id="Vrstva_1" xmlns="http://www.w3.org/2000/svg" xmlns:xlink="http://www.w3.org/1999/xlink" x="0px" y="0px"
	 viewBox="0 0 595.28 841.89" style="enable-background:new 0 0 595.28 841.89;" xml:space="preserve">
<style type="text/css">
	.st0{fill:#696868;}
</style>
<g>
	<path class="st0" d="M104.23,232.4c-3.21-1.15-6.09-2.73-7.96-5.74c-1.57-2.53-1.84-5.3-1.84-8.18
		c0.02-33.66,0.01-67.33,0.01-100.99c0-23.39,0.03-46.78-0.02-70.17c-0.01-5.37,1.86-9.61,6.74-12.1c1.55-0.79,3.44-1.3,5.17-1.31
		c33.02-0.08,66.04-0.07,99.05-0.02c0.71,0,1.62,0.44,2.11,0.97c10.98,11.85,21.92,23.73,32.8,35.66c0.6,0.66,0.88,1.83,0.89,2.77
		c0.05,14.86,0.04,29.72,0.04,44.58c0,33.6-0.03,67.2,0.03,100.8c0.01,4.54-1.13,8.46-4.89,11.21c-1.47,1.07-3.28,1.69-4.93,2.52
		C189.03,232.4,146.63,232.4,104.23,232.4z M199.21,44.24c-0.85-0.04-1.49-0.09-2.12-0.09c-29.66,0-59.32,0-88.98,0
		c-3.05,0-3.43,0.39-3.43,3.49c0,56.99,0,113.99,0,170.98c0,3.07,0.39,3.46,3.46,3.46c39.81,0,79.61,0,119.42,0
		c3.05,0,3.42-0.39,3.42-3.49c0-45.88,0-91.76,0-137.64c0-0.68,0-1.36,0-2.13c-8.77,0-17.23,0-25.7,0c-4.06,0-6.06-1.97-6.07-6.01
		c-0.01-8.79,0-17.58,0-26.36C199.21,45.75,199.21,45.06,199.21,44.24z M209.59,52.32c0,5.7,0,10.83,0,15.95c4.88,0,9.63,0,14.69,0
		C219.33,62.89,214.62,57.78,209.59,52.32z"/>
	<path class="st0" d="M166.08,121.71c-13.83,0-27.65,0-41.48-0.01c-0.9,0-1.81-0.06-2.69-0.23c-1.85-0.36-3-1.86-2.98-3.73
		c0.02-1.87,1.19-3.29,3.09-3.63c0.82-0.15,1.67-0.21,2.5-0.21c27.72-0.01,55.44-0.01,83.16,0c0.9,0,1.81,0.06,2.69,0.23
		c1.81,0.35,3.04,1.93,3.01,3.73c-0.02,1.71-1.23,3.27-2.93,3.61c-0.94,0.19-1.92,0.24-2.88,0.24
		C193.73,121.72,179.91,121.71,166.08,121.71z"/>
	<path class="st0" d="M165.98,95.89c-13.96,0-27.91,0-41.87,0c-0.65,0-1.31,0.06-1.93-0.05c-1.75-0.33-2.92-1.33-3.2-3.15
		c-0.29-1.92,0.61-3.55,2.38-4.15c0.83-0.28,1.77-0.36,2.66-0.36c28.1-0.02,56.21-0.02,84.31,0c0.76,0,1.56,0.06,2.29,0.27
		c1.93,0.57,2.93,2.19,2.66,4.14c-0.25,1.84-1.6,3.12-3.5,3.29c-0.58,0.05-1.16,0.02-1.74,0.02C194.02,95.89,180,95.89,165.98,95.89
		z"/>
	<path class="st0" d="M166.08,138.86c13.96,0,27.91,0,41.87,0c3.58,0,5.41,1.28,5.43,3.8c0.02,2.6-1.87,3.97-5.53,3.97
		c-27.91,0-55.82,0-83.73,0c-3.45,0-5.26-1.44-5.19-4.06c0.05-1.84,1.33-3.34,3.16-3.59c0.83-0.12,1.68-0.11,2.51-0.11
		C138.43,138.85,152.26,138.86,166.08,138.86z"/>
	<path class="st0" d="M166.29,171.89c-14.08,0-28.17,0.01-42.25-0.01c-0.89,0-1.84-0.04-2.66-0.33c-1.61-0.57-2.46-1.8-2.45-3.56
		c0.01-1.75,0.87-2.97,2.5-3.52c0.77-0.26,1.64-0.31,2.47-0.31c28.17-0.01,56.33-0.01,84.5-0.01c0.52,0,1.04-0.02,1.55,0.05
		c2.02,0.3,3.42,1.9,3.4,3.84c-0.02,1.94-1.44,3.52-3.46,3.79c-0.64,0.08-1.29,0.05-1.94,0.05
		C194.07,171.89,180.18,171.89,166.29,171.89z"/>
</g>
<g>
	<path class="st0" d="M347.66,384.93c-2.8,0-5.11,0.14-7.4-0.02c-9.58-0.69-16.34-7.79-16.36-17.39c-0.07-22.7-0.06-45.4,0-68.1
		c0.03-9.95,7.45-17.33,17.41-17.34c28.33-0.04,56.65-0.04,84.98,0c10.21,0.01,17.55,7.19,17.7,17.42
		c0.14,9.81,0.04,19.62,0.04,29.42c0,1.41,0,2.81,0,4.62c1.55,0,2.72,0,3.9,0c25.57,0,51.14-0.01,76.71,0
		c11.93,0.01,18.82,6.95,18.82,18.93c0.01,21.71,0.01,43.42,0,65.13c0,11.76-6.95,18.75-18.64,18.77c-1.62,0-3.24,0-5.15,0
		c0,8.02,0,15.61,0,23.19c0,1.1,0.26,2.29-0.07,3.29c-0.47,1.45-1.05,3.46-2.14,3.93c-1.08,0.47-3.27-0.25-4.26-1.19
		c-5.29-4.99-10.36-10.21-15.5-15.35c-3.89-3.9-7.67-7.93-11.74-11.63c-1.3-1.18-3.37-2.11-5.1-2.13c-13-0.17-26.01-0.07-39.02-0.1
		c-11.49-0.02-18.47-7.03-18.52-18.59c-0.04-9.81-0.01-19.62-0.02-29.42c0-0.97-0.11-1.93-0.19-3.32c-2.2,0-4.26,0-6.32,0
		c-10.14,0-20.28-0.1-30.42,0.1c-1.73,0.03-3.83,0.94-5.08,2.15c-8.85,8.6-17.47,17.44-26.32,26.04c-1.24,1.2-3.46,2.31-5.01,2.07
		c-2.57-0.4-2.31-3.05-2.3-5.16C347.66,401.98,347.66,393.73,347.66,384.93z M512.57,455.56c0.1-1.94,0.2-2.99,0.2-4.04
		c0.02-5.51-0.01-11.02,0.02-16.53c0.03-4.79,0.73-5.45,5.64-5.46c2.09,0,4.19,0,6.28,0c7.83-0.02,11.85-3.95,11.87-11.78
		c0.04-21.82,0.03-43.64,0-65.46c-0.01-8.02-4-11.94-12.04-11.95c-27.45-0.01-54.89-0.01-82.34,0c-7.99,0-11.91,3.97-11.91,12.03
		c-0.01,21.71-0.01,43.42,0,65.13c0,8.07,3.9,12.01,11.9,12.02c13.45,0.02,26.9,0.08,40.34-0.06c2.99-0.03,5.16,0.8,7.25,2.97
		C497.08,440.05,504.57,447.48,512.57,455.56z M423.31,378.04c0-9.17-0.05-17.86,0.01-26.56c0.06-8.29,4.02-14.22,11.67-17.01
		c2.02-0.74,2.06-1.85,2.06-3.45c-0.02-10.03,0-20.06-0.02-30.09c-0.01-8.11-3.88-12.03-11.91-12.03c-27.45-0.01-54.9-0.01-82.35,0
		c-8.05,0-12.02,3.92-12.03,11.96c-0.03,21.82-0.01,43.65-0.01,65.47c0,0.77,0.01,1.55,0.1,2.31c0.65,5.54,4.6,9.22,10.15,9.38
		c3.08,0.09,6.17,0.04,9.26,0.02c2.86-0.02,4.29,1.33,4.28,4.21c-0.01,3.75,0.01,7.49,0.01,11.24c0,3.24,0,6.47,0,10.68
		c7.02-7.06,13.64-13.07,19.45-19.79c4.4-5.08,9.24-6.78,15.81-6.48C400.81,378.4,411.83,378.04,423.31,378.04z"/>
	<path class="st0" d="M513.26,415.78c-3.21,0-5.85,0.14-8.46-0.08c-0.83-0.07-1.93-0.96-2.29-1.76c-1.38-3-2.63-6.07-3.68-9.19
		c-0.64-1.92-1.71-2.42-3.63-2.4c-7.93,0.1-15.87,0.1-23.8,0.01c-1.82-0.02-2.78,0.47-3.38,2.25c-1.02,3.02-2.41,5.91-3.45,8.93
		c-0.61,1.75-1.57,2.4-3.4,2.29c-2.37-0.14-4.76-0.04-7.73-0.04c1.69-4.23,3.13-7.88,4.6-11.53c6.38-15.82,12.81-31.62,19.09-47.48
		c0.83-2.1,1.88-2.78,4.1-2.76c7.33,0.08,7.34-0.02,10.14,6.94c6.86,17.05,13.72,34.1,20.57,51.16
		C512.32,413.11,512.66,414.13,513.26,415.78z M483.39,364.64c-4.05,10.36-7.74,19.79-11.47,29.32c7.86,0,15.24,0,23.02,0
		C491.1,384.21,487.41,374.85,483.39,364.64z"/>
	<path class="st0" d="M390.46,345.64c7.72,6.48,16.59,10.21,26.32,13.51c-1.44,2.63-2.58,5.09-4.12,7.27
		c-0.38,0.53-2.18,0.47-3.11,0.13c-8.53-3.15-16.45-7.41-23.62-13.05c-0.59-0.47-1.19-0.93-1.04-0.81
		c-8.62,4.74-16.71,9.36-24.97,13.66c-3.98,2.07-4.13,1.79-6.47-2.21c-0.71-1.21-1.39-2.43-2.31-4.05
		c9.79-3.52,18.83-7.64,26.49-14.65c-6.14-8.04-10.64-16.78-13.68-26.3c-0.2-0.63-1.4-1.22-2.2-1.33c-1.51-0.21-3.08-0.07-4.62-0.06
		c-4.69,0.01-6.25-2.06-4.71-6.67c0.23-0.69,1.84-1.28,2.82-1.29c7.82-0.1,15.64-0.06,24.08-0.06c0-2.72,0.09-5.3-0.03-7.88
		c-0.1-2,0.6-2.72,2.65-2.67c7.34,0.17,5.95-0.69,6.09,5.82c0.03,1.42,0,2.84,0,4.75c4.14,0,8.07,0,11.99,0
		c4.19,0,8.38,0.11,12.56-0.04c2.25-0.08,3.32,0.57,3.06,2.95c-0.17,1.61-0.17,3.23-0.27,5.1c-3.19,0-6.05-0.11-8.89,0.07
		c-0.86,0.06-2.21,0.77-2.42,1.46C401.2,328.86,396.94,337.71,390.46,345.64z M394.81,318.01c-7.58,0-14.63,0-21.94,0
		c2.44,7.93,6.02,14.84,11.31,21.13C389.36,332.71,392.59,325.74,394.81,318.01z"/>
</g>
<g>
	<path class="st0" d="M73.78,515.91c2.5,0,4.66,0,7.25,0c0,1.79,0,3.56,0,5.32c0,4.32,1.03,5.37,5.3,5.37c32.74,0,65.48,0,98.22,0
		c12.07,0,24.14,0,36.21,0c3.99,0,5.11-1.12,5.11-5.1c0-69.03,0-138.06,0-207.08c0-3.97-1.12-5.09-5.13-5.09
		c-44.89,0-89.77,0-134.66,0c-3.95,0-5.05,1.13-5.06,5.16c0,1.8,0,3.59,0,5.54c-2.43,0-4.65,0-7.46,0
		c0.27-3.58,0.08-7.24,0.92-10.66c1.1-4.5,5.48-7.27,10.33-7.28c10.71-0.03,21.42-0.01,32.14-0.01c34.7,0,69.4,0,104.11,0
		c7.69,0,12.06,4.36,12.06,12.05c0,69.25,0,138.51,0,207.76c0,7.54-4.4,11.95-11.93,11.95c-45.11,0-90.23,0-135.34,0
		c-7.69,0-12.05-4.36-12.06-12.05C73.78,519.92,73.78,518.05,73.78,515.91z"/>
	<path class="st0" d="M167.72,407.11c-9.95,0-19.89-0.02-29.84,0.01c-1.82,0.01-3.27-0.51-4.04-2.26c-0.94-2.12,0.43-4.57,2.79-4.93
		c0.74-0.11,1.5-0.06,2.26-0.06c19.44,0,38.88,0,58.32,0c0.6,0,1.21-0.04,1.81,0.03c1.97,0.22,3.34,1.75,3.32,3.64
		c-0.03,1.9-1.41,3.43-3.41,3.53c-2.26,0.11-4.52,0.04-6.78,0.04C183.99,407.11,175.86,407.11,167.72,407.11z"/>
	<path class="st0" d="M167.79,421.58c-9.87,0-19.74-0.01-29.61,0c-2.97,0-4.69-1.34-4.64-3.69c0.05-2.23,1.72-3.54,4.58-3.54
		c19.89-0.01,39.78-0.01,59.67,0c2.87,0,4.52,1.33,4.53,3.58c0.02,2.27-1.64,3.65-4.46,3.65c-10.02,0.01-20.05,0-30.07,0
		C167.79,421.58,167.79,421.58,167.79,421.58z"/>
	<path class="st0" d="M167.92,428.86c10.01,0,20.02-0.02,30.02,0.03c0.93,0,2.02,0.17,2.75,0.67c1.28,0.89,2.04,2.2,1.44,3.92
		c-0.63,1.8-1.91,2.61-3.78,2.6c-6.18-0.01-12.36,0-18.54,0c-13.72,0-27.43,0-41.15,0c-0.38,0-0.75,0.01-1.13-0.01
		c-2.44-0.09-4.04-1.56-4-3.67c0.04-1.97,1.62-3.5,3.9-3.52c7.15-0.06,14.3-0.04,21.46-0.04c3.01,0,6.02,0,9.03,0
		C167.92,428.85,167.92,428.85,167.92,428.86z"/>
	<path class="st0" d="M78.75,334.68c-2.64,0-5.27,0.02-7.91-0.01c-2.72-0.03-4.27-1.35-4.29-3.58c-0.02-2.25,1.53-3.63,4.22-3.65
		c5.35-0.03,10.69-0.05,16.04,0.02c1.33,0.02,2.13-0.28,2.84-1.57c2.5-4.57,7.41-6.62,12.26-5.33c4.78,1.27,8.07,5.54,8.08,10.46
		c0.01,4.95-3.23,9.21-8.01,10.52c-4.85,1.33-9.8-0.71-12.3-5.24c-0.68-1.23-1.4-1.71-2.79-1.65
		C84.18,334.76,81.46,334.68,78.75,334.68z M99.12,334.64c1.95,0.01,3.59-1.62,3.61-3.57c0.01-1.94-1.64-3.59-3.59-3.6
		c-1.94-0.01-3.6,1.64-3.6,3.58C95.53,333.01,97.15,334.64,99.12,334.64z"/>
	<path class="st0" d="M79.01,385.39c1.36,0,2.72-0.08,4.07,0.01c3.27,0.22,5.88,0.03,8.01-3.44c2.41-3.94,7.92-4.81,12.19-3.01
		c4.44,1.87,7.07,6.19,6.69,10.99c-0.37,4.68-3.84,8.62-8.5,9.67c-4.51,1.02-9.36-0.96-11.58-5.07c-0.88-1.63-1.9-1.95-3.55-1.93
		c-5.12,0.08-10.24,0.04-15.36,0.02c-2.81-0.01-4.46-1.4-4.42-3.67c0.04-2.19,1.64-3.54,4.32-3.58
		C73.59,385.37,76.3,385.4,79.01,385.39z M99.3,385.41c-1.91-0.1-3.66,1.49-3.76,3.42c-0.1,1.94,1.46,3.66,3.41,3.76
		c1.92,0.1,3.66-1.48,3.77-3.41C102.82,387.26,101.24,385.51,99.3,385.41z"/>
	<path class="st0" d="M78.7,421.64c-2.71,0-5.42,0.03-8.13-0.01c-2.47-0.04-4.02-1.47-4.01-3.61c0.01-2.14,1.56-3.6,4.04-3.62
		c5.35-0.04,10.7-0.06,16.04,0.02c1.53,0.02,2.35-0.41,3.13-1.84c2.74-5.02,8.99-6.89,14.07-4.41c5.14,2.51,7.51,8.53,5.42,13.76
		c-2.13,5.31-7.87,8.1-13.3,6.43c-2.78-0.86-4.95-2.59-6.28-5.17c-0.67-1.3-1.5-1.65-2.84-1.61c-2.71,0.08-5.42,0.02-8.12,0.02
		C78.7,421.62,78.7,421.63,78.7,421.64z M102.72,418.05c0.05-1.93-1.58-3.63-3.51-3.67c-1.92-0.04-3.63,1.59-3.67,3.52
		c-0.04,1.95,1.57,3.63,3.51,3.66C100.98,421.6,102.67,419.98,102.72,418.05z"/>
	<path class="st0" d="M78.76,363.66c-2.71,0-5.42,0.03-8.13-0.01c-2.52-0.04-4.05-1.41-4.08-3.56c-0.03-2.15,1.5-3.64,3.99-3.66
		c5.35-0.06,10.69-0.06,16.04,0c1.48,0.02,2.39-0.29,3.18-1.76c2.39-4.42,7.4-6.42,12.14-5.15c4.78,1.28,8.07,5.54,8.09,10.46
		c0.02,4.95-3.23,9.21-8,10.52c-4.85,1.33-9.81-0.7-12.31-5.22c-0.68-1.23-1.39-1.71-2.79-1.65
		C84.19,363.74,81.47,363.66,78.76,363.66z M102.72,360.02c0-1.94-1.67-3.58-3.61-3.57c-1.93,0.01-3.59,1.68-3.58,3.61
		c0.02,1.96,1.64,3.57,3.61,3.56C101.1,363.6,102.73,361.97,102.72,360.02z"/>
	<path class="st0" d="M78.68,450.63c-2.71,0-5.42,0.04-8.13-0.01c-2.46-0.04-4.01-1.5-3.99-3.63c0.02-2.13,1.56-3.58,4.06-3.6
		c5.5-0.05,10.99-0.05,16.49,0.01c1.21,0.01,1.84-0.36,2.44-1.45c2.58-4.72,7.44-6.81,12.38-5.49c4.76,1.27,8.05,5.55,8.05,10.48
		c0,4.93-3.25,9.19-8.03,10.5c-4.82,1.32-9.73-0.72-12.29-5.27c-0.64-1.14-1.32-1.6-2.63-1.56
		C84.25,450.69,81.47,450.63,78.68,450.63z M102.72,446.83c-0.07-1.94-1.77-3.54-3.7-3.48c-1.95,0.06-3.54,1.75-3.48,3.7
		c0.06,1.94,1.77,3.54,3.7,3.48C101.18,450.47,102.79,448.77,102.72,446.83z"/>
	<path class="st0" d="M78.86,508.59c-2.79,0-5.57,0.04-8.36-0.01c-2.45-0.04-3.99-1.52-3.95-3.67c0.04-2.06,1.52-3.53,3.88-3.55
		c5.42-0.07,10.84-0.07,16.26,0c1.43,0.02,2.25-0.33,2.98-1.7c2.38-4.46,7.29-6.52,12.06-5.32c4.81,1.21,8.16,5.43,8.24,10.34
		c0.08,4.94-3.12,9.28-7.84,10.64c-4.83,1.39-9.85-0.57-12.37-5.06c-0.74-1.32-1.54-1.77-3.01-1.71
		C84.13,508.67,81.49,508.59,78.86,508.59z M102.72,504.88c0-1.95-1.64-3.59-3.59-3.58c-1.97,0-3.59,1.63-3.6,3.58
		c0,1.95,1.63,3.58,3.59,3.59C101.07,508.47,102.72,506.82,102.72,504.88z"/>
	<path class="st0" d="M78.82,479.61c-2.72,0-5.43,0.03-8.15-0.01c-2.51-0.04-4.08-1.42-4.12-3.53c-0.05-2.22,1.55-3.69,4.2-3.71
		c5.36-0.04,10.71-0.05,16.07,0.02c1.35,0.02,2.12-0.33,2.81-1.61c2.46-4.58,7.4-6.65,12.26-5.36c4.7,1.25,7.99,5.42,8.09,10.26
		c0.1,4.96-3.09,9.31-7.83,10.69c-4.82,1.4-9.84-0.57-12.39-5.07c-0.75-1.32-1.56-1.76-3.02-1.7
		C84.1,479.7,81.46,479.62,78.82,479.61z M99.22,472.33c-1.96-0.05-3.63,1.53-3.68,3.49c-0.05,1.93,1.56,3.63,3.5,3.68
		c1.92,0.05,3.63-1.57,3.68-3.5C102.77,474.05,101.17,472.38,99.22,472.33z"/>
	<path class="st0" d="M73.99,342.02c2.37,0,4.53,0,6.86,0c0,2.36,0,4.63,0,7.04c-2.3,0-4.51,0-6.86,0
		C73.99,346.68,73.99,344.36,73.99,342.02z"/>
	<path class="st0" d="M73.9,378.01c0-2.33,0-4.55,0-6.94c2.28,0,4.5,0,6.92,0c0,2.22,0,4.5,0,6.94
		C78.62,378.01,76.4,378.01,73.9,378.01z"/>
	<path class="st0" d="M80.91,400.04c0,2.36,0,4.58,0,6.96c-2.31,0-4.53,0-6.94,0c0-2.24,0-4.52,0-6.96
		C76.2,400.04,78.42,400.04,80.91,400.04z"/>
	<path class="st0" d="M80.85,436.01c-2.3,0-4.52,0-6.91,0c0-2.33,0-4.6,0-7.02c2.31,0,4.52,0,6.91,0
		C80.85,431.33,80.85,433.61,80.85,436.01z"/>
	<path class="st0" d="M73.93,457.98c2.37,0,4.58,0,6.95,0c0,2.33,0,4.55,0,6.96c-2.26,0-4.53,0-6.95,0
		C73.93,462.7,73.93,460.48,73.93,457.98z"/>
	<path class="st0" d="M73.9,486.93c2.4,0,4.56,0,6.92,0c0,2.31,0,4.58,0,7.02c-2.27,0-4.53,0-6.92,0
		C73.9,491.61,73.9,489.4,73.9,486.93z"/>
</g>
<g>
	<path class="st0" d="M316.94,630.72c0-14.19,0-28.38,0-42.58c0.25-0.97,0.48-1.94,0.74-2.9c2.75-10.03,11.7-16.86,22.09-16.87
		c1.4,0,2.79,0,4.24,0c0-5.6,0-10.97,0-16.34c0.01-12.82,10.1-22.89,22.96-22.89c18.55-0.01,37.1-0.01,55.65,0.01
		c1.36,0,2.73,0.11,4.08,0.31c9.19,1.34,17.54,9.42,18.5,18.64c0.62,6.02,0.3,12.14,0.4,18.21c0.01,0.64,0,1.29,0,2.06
		c1.51,0,2.87,0,4.23,0c12.73,0.01,22.84,10.12,22.85,22.86c0.01,12.06,0.01,24.12,0,36.18c-0.01,13.04-10.04,23.06-23.09,23.07
		c-1.3,0-2.59,0-3.98,0c0,0.75,0,1.3,0,1.86c0,6.28,0,12.57,0,18.85c0,4.02-1.56,7.36-4.46,10.11c-2.01,1.9-4.5,2.84-7.09,3.56
		c-26.16,0-52.32,0-78.48,0c-0.23-0.1-0.45-0.22-0.69-0.28c-6.8-1.69-10.86-6.85-10.86-13.83c0-6.18,0-12.36,0-18.53
		c0-0.54,0-1.08,0-1.73c-1.59,0-3,0-4.41,0c-10.08-0.02-18.97-6.73-21.77-16.44C317.51,632.94,317.24,631.83,316.94,630.72z
		 M445.64,641.37c1.32,0,2.53,0.01,3.73,0c8.22-0.07,14.15-5.98,14.18-14.22c0.03-11.81,0.03-23.61,0-35.42
		c-0.02-8.25-5.94-14.22-14.16-14.22c-36.39-0.02-72.78-0.02-109.17,0c-8.15,0.01-14.11,5.95-14.14,14.08
		c-0.04,11.91-0.08,23.82,0.05,35.72c0.02,2.11,0.56,4.35,1.43,6.28c2.67,5.92,8.93,8.72,16.37,7.62c0-4.97,0-9.96,0-15.05
		c-0.99,0-1.9,0.02-2.8,0c-2.48-0.07-4.38-2.02-4.41-4.49c-0.03-2.78,1.97-4.62,5.04-4.62c34.61,0,69.23,0,103.84,0
		c0.96,0,1.93-0.02,2.89,0.01c2.49,0.07,4.39,2.01,4.42,4.48c0.03,2.55-1.88,4.56-4.42,4.63c-0.94,0.03-1.88,0-2.84,0
		C445.64,631.3,445.64,636.21,445.64,641.37z M436.49,626.27c-27.88,0-55.57,0-83.35,0c0,0.61,0,1.11,0,1.61
		c0,14.09,0,28.18,0,42.27c0,3.82,1.75,5.59,5.56,5.59c24.08,0,48.16,0,72.23,0c3.8,0,5.56-1.76,5.56-5.59c0-13.94,0-27.87,0-41.81
		C436.49,627.68,436.49,627.03,436.49,626.27z M436.48,568.32c0-5.32,0.01-10.49,0-15.65c-0.03-8.51-5.92-14.4-14.45-14.4
		c-18.15-0.01-36.29-0.01-54.44,0c-8.53,0.01-14.43,5.89-14.45,14.4c-0.01,4.76,0,9.53,0,14.29c0,0.44,0.05,0.88,0.08,1.36
		C380.98,568.32,408.64,568.32,436.48,568.32z"/>
	<path class="st0" d="M348.63,587.84c2.38,0,4.76-0.02,7.14,0c2.7,0.02,4.65,1.94,4.66,4.54c0.01,2.6-1.94,4.56-4.63,4.57
		c-4.81,0.02-9.62,0.02-14.43,0c-2.7-0.01-4.65-1.94-4.66-4.54c-0.01-2.6,1.95-4.55,4.63-4.57
		C343.77,587.83,346.2,587.84,348.63,587.84z"/>
	<path class="st0" d="M394.65,645.62c-3.9,0-7.8,0.01-11.7,0c-2.92-0.01-4.9-1.91-4.87-4.64c0.03-2.63,2.02-4.47,4.88-4.48
		c7.9-0.01,15.81-0.01,23.71,0c2.86,0,4.84,1.84,4.87,4.48c0.03,2.73-1.95,4.62-4.88,4.63
		C402.66,645.63,398.66,645.62,394.65,645.62z"/>
	<path class="st0" d="M394.76,665.09c-3.95,0-7.9,0.01-11.85,0c-2.83-0.01-4.81-1.89-4.82-4.54c-0.01-2.66,1.97-4.57,4.77-4.58
		c7.95-0.01,15.91-0.01,23.86,0c2.83,0,4.81,1.88,4.82,4.53c0.01,2.66-1.96,4.57-4.78,4.58
		C402.76,665.1,398.76,665.09,394.76,665.09z"/>
</g>
<g>
	<path class="st0" d="M238.08,660.76c-0.31,16.2-6.35,29.84-18.47,40.63c-8.07,7.18-17.61,11.41-28.32,12.82
		c-9.47,1.25-18.69,0.11-27.53-3.58c-1.16-0.48-2.14-0.29-3.22,0c-7.61,2.07-15.22,4.14-22.85,6.17c-3.72,0.99-6.77-1.05-7.08-4.64
		c-0.11-1.27,0.41-2.43,0.72-3.62c1.82-6.94,3.68-13.86,5.55-20.78c0.16-0.58,0.1-1.04-0.18-1.58c-3.16-6.07-5.2-12.47-5.96-19.29
		c-1.17-10.55,0.57-20.58,5.29-30.06c4.7-9.44,11.61-16.87,20.7-22.28c6.72-4,13.97-6.39,21.7-7.25c5.09-0.57,10.17-0.32,15.24,0.58
		c8.45,1.49,16.11,4.78,22.9,9.97c11.29,8.62,18.18,19.99,20.71,33.98C237.82,654.77,238.1,657.75,238.08,660.76z M141.55,706.12
		c0.35-0.07,0.51-0.09,0.65-0.13c6.46-1.73,12.93-3.44,19.39-5.21c1.23-0.34,2.31-0.24,3.45,0.3c7.4,3.53,15.18,4.91,23.36,4.13
		c5.66-0.54,11.04-2.04,16.07-4.68c9.84-5.16,16.92-12.86,21.11-23.17c2.91-7.14,3.84-14.56,2.85-22.16
		c-1.35-10.4-5.85-19.29-13.44-26.56c-7.72-7.39-16.98-11.48-27.61-12.28c-7.26-0.54-14.29,0.67-21,3.64
		c-9.22,4.08-16.29,10.53-21.19,19.29c-4.5,8.04-6.27,16.72-5.35,25.92c0.66,6.65,2.68,12.85,6.13,18.56
		c0.76,1.25,0.92,2.43,0.52,3.86C144.82,693.72,143.23,699.84,141.55,706.12z"/>
	<path class="st0" d="M183.86,674.23c-1.28,0-2.55,0-3.83,0c-0.39,0-0.85,0.07-0.86-0.55c-0.05-3.32-0.09-6.65,1.57-9.68
		c1.57-2.85,4.04-4.89,6.5-6.93c1.38-1.14,2.79-2.26,4.08-3.5c3.61-3.46,2.23-9.53-2.52-11.21c-3.36-1.19-6.66-1.15-9.77,0.73
		c-2.43,1.47-3.65,3.85-4.34,6.49c-0.23,0.9-0.64,1.03-1.42,0.93c-2.45-0.33-4.89-0.66-7.35-0.9c-0.92-0.09-1.09-0.38-0.98-1.28
		c0.91-7.12,6.69-12.91,14.21-14.24c5.44-0.96,10.85-0.71,15.83,1.95c5.06,2.71,8.3,6.82,8.56,12.77c0.17,3.83-1.62,6.89-4.17,9.59
		c-2.17,2.3-4.55,4.36-7.01,6.32c-2.72,2.16-3.96,4.92-3.79,8.33c0.05,1-0.34,1.23-1.24,1.18
		C186.18,674.18,185.02,674.23,183.86,674.23z"/>
	<path class="st0" d="M189.5,682.78c0,1.44-0.02,2.87,0.01,4.31c0.02,0.67-0.21,0.91-0.89,0.9c-2.87-0.03-5.75-0.02-8.62,0
		c-0.62,0-0.83-0.22-0.83-0.84c0.02-2.91,0.01-5.83,0-8.74c0-0.55,0.19-0.78,0.77-0.77c2.91,0.02,5.83,0.02,8.74,0
		c0.62,0,0.85,0.22,0.84,0.83C189.49,679.91,189.5,681.35,189.5,682.78C189.5,682.78,189.5,682.78,189.5,682.78z"/>
</g>
<path class="st0" d="M548.6,146.16c-3.47,0-6.94,0-10.29,0c-0.24,4.55-0.25,8.68-0.72,12.75c-2.42,20.98-20.81,39.2-41.7,42.07
	c-24.22,3.33-46.76-10.88-54.17-33.18c-1.46-4.38-2.19-9.09-2.59-13.71c-0.53-6.11-2.18-8.61-8.31-10.02
	c-4.37-1.01-8.68-0.69-12.66,1.63c-2.48,1.45-3.93,3.46-3.99,6.54c-0.43,25.16-18.24,45.24-43.14,48.75
	c-26.68,3.76-52.14-15.66-55.42-42.37c-0.49-3.98-0.46-8.02-0.68-12.31c-3.33,0-6.7,0-10.18,0c0-3.49,0-6.7,0-10.19
	c3.63,0,7.18-0.08,10.72,0.04c1.59,0.05,2.35-0.43,2.96-1.95c7.02-17.31,19.8-27.86,38.1-31.26c23.09-4.28,46.69,9.69,54.72,31.96
	c0.26,0.73,0.54,1.46,0.86,2.32c9.67-5.31,19.27-5.37,28.67-0.17c2.03-4,3.66-8.16,6.08-11.8c10.78-16.22,26.14-24.28,45.49-22.75
	c20.15,1.6,34.26,12.55,42.26,31.14c0.76,1.76,1.46,2.62,3.51,2.51c3.48-0.19,6.98-0.04,10.48-0.03
	C548.6,139.49,548.6,142.83,548.6,146.16z M364.64,191.15c21.75,0,39.33-17.62,39.26-39.33c-0.07-21.72-17.37-39.04-39.14-39.21
	c-21.62-0.17-39.31,17.43-39.43,39.21C325.21,173.43,342.93,191.16,364.64,191.15z M488.58,191.15
	c21.76-0.02,39.37-17.66,39.28-39.33c-0.1-21.8-17.76-39.37-39.41-39.2c-21.78,0.17-39.07,17.5-39.13,39.21
	C449.25,173.54,466.85,191.17,488.58,191.15z"/>
<g>
</g>
<g>
</g>
<g>
</g>
<g>
</g>
<g>
</g>
<g>
</g>
</svg>
